<?xml version="1.0" standalone="no"?> <!DOCTYPE svg PUBLIC "-//W3C//DTD SVG 1.0//EN" "http://www.w3.org/TR/2001/REC-SVG-20010904/DTD/svg10.dtd" > <svg xmlns="http://www.w3.org/2000/svg" width="100%" height="100%">
<defs >
<font id="hacen_saudi_arabia" horiz-adv-x="842" ><font-face
    font-family="Hacen Saudi Arabia"
    units-per-em="2048"
    panose-1="2 0 0 0 0 0 0 0 0 0"
    ascent="2163"
    descent="-1000"
    alphabetic="0" />
<missing-glyph horiz-adv-x="582" d="M5 1407H490V300H5V1407ZM76 1336V370H419V1336H76Z" />
<glyph unicode=" " glyph-name="space" horiz-adv-x="435" />
<glyph unicode="!" glyph-name="exclam" horiz-adv-x="528" d="M139 254H389V0H139V254ZM141 399L123 1434H406L387 399H141Z" />
<glyph unicode="&quot;" glyph-name="quotedbl" horiz-adv-x="797" d="M123 1434H346L336 924H135L123 1434ZM451 1434H674L664 924H463L451 1434Z" />
<glyph unicode="#" glyph-name="numbersign" horiz-adv-x="1790" d="M352 369H82L152 545H424L569 905H297L369 1081H641L782 1434H987L846 1081H1231L1372 1434H1577L1436 1081H1708L1636 905H1364L1219 545H1491L1419 369H1147L999 0H795L942 369H557L410 0H207L352
369ZM1159 905H774L629 545H1014L1159 905Z" />
<glyph unicode="$" glyph-name="dollar" horiz-adv-x="1372" d="M135 215H602V647L328 735Q299 745 273 755T221 779Q171 804 131 872Q98 929 90 986T82 1094Q82 1126 85 1157T93 1221Q104 1286 150 1337Q178 1370 213 1389T287 1418T364 1431T436 1434H602V1573H762V1434H1200V1219H762V809L1004
731Q1060 713 1117 688Q1176 664 1227 596Q1272 538 1281 478Q1290 419 1290 350Q1290 312 1288 273T1277 196T1247 126T1192 66Q1161 41 1124 28T1049 8T971 1T897 0H762V-139H602V0H135V215ZM811 215Q828 215 848 216T893 222Q942 229 969 252Q987 268 999 298T1012
371Q1012 429 983 482Q955 534 864 563L762 596V215H811ZM602 1219H547Q489 1219 453 1207T397 1176Q386 1164 379 1148T368 1115T362 1080T360 1047Q360 1008 371 982T399 940T434 916T467 903L602 860V1219Z" />
<glyph unicode="%" glyph-name="percent" horiz-adv-x="1673" d="M1116 1434H1296L565 0H385L1116 1434ZM440 1446Q496 1446 561 1434Q625 1424 676 1376Q702 1350 718 1316T743 1245T755 1171T758 1102Q758 1069 755 1032T743 959T718 888T676 827Q625 779 561
769Q529 764 499 761T440 758Q411 758 381 761T317 769Q254 779 203 827Q174 854 158 887T135 957T125 1030T123 1102Q123 1132 125 1169T134 1243T158 1315T203 1376Q254 1424 317 1434Q383 1446 440 1446ZM291 1102Q291 1034 300 996T326 938Q348 909 380 902T440
895Q467 895 497 902T553 938Q581 971 586 1019Q588 1043 589 1064T590 1102Q590 1119 589 1140T586 1185Q581 1233 553 1266Q528 1294 498 1301T440 1309Q412 1309 380 1302T326 1266Q309 1245 300 1207T291 1102ZM1233 676Q1288 676 1353 664Q1417 654 1468 606Q1495
580 1511 546T1536 475T1547 401T1550 332Q1550 299 1548 262T1536 189T1511 118T1468 57Q1417 9 1353 -1Q1321 -6 1291 -9T1233 -12Q1204 -12 1174 -9T1110 -1Q1046 9 995 57Q967 84 951 117T927 187T917 260T915 332Q915 362 917 399T927 473T952 545T995 606Q1046
654 1110 664Q1176 676 1233 676ZM1083 332Q1083 264 1092 226T1118 168Q1141 139 1172 132T1233 125Q1260 125 1290 132T1346 168Q1373 200 1378 249Q1380 273 1381 294T1382 332Q1382 349 1381 370T1378 415Q1373 464 1346 496Q1321 524 1291 531T1233 539Q1204
539 1173 532T1118 496Q1102 475 1093 437T1083 332Z" />
<glyph unicode="&amp;" glyph-name="ampersand" horiz-adv-x="1526" d="M1270 272Q1270 246 1268 218T1260 159Q1251 98 1210 57Q1188 35 1158 24T1095 7T1033 1T983 0H506Q472 0 433 1T355 13T277 44T205 106Q147 173 135 252Q123 330 123 401Q123 425 124 452T130
509Q138 570 176 623Q196 648 234 677Q274 706 340 717V721Q298 725 262 744T195 805Q152 860 139 924T125 1055Q125 1084 127 1121T138 1197T165 1276T217 1348Q275 1406 351 1420Q389 1427 427 1430T504 1434H1253V1221H608Q588 1221 566 1219T521 1213Q474 1205
451 1188Q428 1171 414 1134T399 1026Q399 1015 400 993T407 947T423 898T453 858Q471 842 495 833T543 820T589 814T627 813H1485V621H1270V272ZM909 213Q938 213 959 216T991 229Q1001 240 1003 256T1006 289V618H559Q492 618 461 594Q431 573 420 555Q407 533
402 499T397 436V412Q397 337 411 304Q419 288 423 279T430 266Q458 229 506 221Q529 217 550 215T588 213H909Z" />
<glyph unicode="&apos;" glyph-name="quotesingle" horiz-adv-x="471" d="M123 1434H348L336 924H135L123 1434Z" />
<glyph unicode="(" glyph-name="parenleft" horiz-adv-x="760" d="M307 283Q307 223 313 150Q319 79 360 12Q399 -51 481 -100Q564 -150 678 -154V-326Q635 -326 586 -321T486 -299T381 -252T274 -172Q214 -115 186 -61Q157 -6 141 68Q127 134 125 195T123 326V797Q123
863 125 929T143 1067Q160 1133 189 1189T274 1296Q334 1351 433 1397Q537 1445 678 1446V1274Q564 1273 482 1224Q400 1176 360 1110Q319 1043 313 972Q307 901 307 838V283Z" />
<glyph unicode=")" glyph-name="parenright" horiz-adv-x="762" d="M455 838Q455 1021 401 1110Q362 1176 278 1224Q195 1272 82 1274V1446Q206 1444 311 1403T489 1296Q539 1251 569 1198T618 1067Q627 1030 631 996T637 930T639 864Q639 831 639 797V326Q639
258 637 198T621 68Q604 -6 576 -61Q549 -117 489 -172Q381 -271 275 -299Q168 -328 82 -326V-154Q197 -149 278 -101Q362 -53 401 12Q424 51 439 114T455 283V838Z" />
<glyph unicode="*" glyph-name="asterisk" horiz-adv-x="1040" d="M594 1552V1217L885 1384L958 1257L668 1090L958 922L881 786L594 952V618H446V952L160 786L82 922L373 1090L82 1257L156 1384L446 1217V1552H594Z" />
<glyph unicode="+" glyph-name="plus" horiz-adv-x="1186" d="M500 172V549H123V723H500V1100H686V723H1063V549H686V172H500Z" />
<glyph unicode="," glyph-name="comma" horiz-adv-x="569" d="M0 -129L250 287L446 170L182 -238L0 -129Z" />
<glyph unicode="-" glyph-name="hyphenminus" horiz-adv-x="895" d="M82 657H813V446H82V657Z" />
<glyph unicode="." glyph-name="period" horiz-adv-x="496" d="M123 0V264H373V0H123Z" />
<glyph unicode="/" glyph-name="slash" horiz-adv-x="1038" d="M0 -340L897 1516H1038L141 -340H0Z" />
<glyph unicode="0" glyph-name="zero" horiz-adv-x="1319" d="M82 930Q82 1018 96 1085T132 1201T180 1285T231 1341Q274 1378 324 1399T430 1432T542 1445T659 1448Q718 1448 776 1445T888 1432T993 1400T1087 1341Q1112 1319 1138 1285T1187 1201T1223 1084T1237
930V518Q1237 416 1222 339T1182 207T1127 116T1065 59Q1033 36 994 23T914 2T830 -7T750 -10H659H567Q530 -10 489 -8T406 2T325 22T254 59Q195 100 161 159T110 283T87 410T82 518V930ZM352 549Q352 449 365 383T412 279Q436 250 467 235T531 214T598 206T659
205Q687 205 720 206T787 213T850 235T905 279Q948 329 957 407Q962 446 964 481T967 549V918Q967 943 965 976T954 1044T926 1113T874 1174Q834 1208 770 1220Q709 1233 659 1233Q610 1233 548 1220Q484 1208 444 1174Q412 1147 394 1113T366 1045T355 977T352
918V549Z" />
<glyph unicode="1" glyph-name="one" horiz-adv-x="618" d="M225 1120Q225 1139 223 1160T211 1196Q201 1212 188 1215T158 1219H0V1434H309Q392 1434 442 1395Q460 1380 471 1362T487 1325T494 1288T496 1253V0H225V1120Z" />
<glyph unicode="2" glyph-name="two" horiz-adv-x="1284" d="M233 0Q223 0 199 3T148 22T102 74T82 172Q82 257 109 298Q137 337 170 360L834 815Q897 858 910 909Q924 963 924 1022Q924 1076 918 1111T895 1169Q856 1219 750 1219H178V1434H874Q900 1434 930
1432T991 1420T1055 1395T1116 1350Q1175 1290 1189 1211Q1196 1172 1199 1133T1202 1053Q1202 993 1193 915Q1184 839 1137 768Q1108 727 1076 702T1012 653L434 252Q430 248 421 242T412 227Q412 223 415 219T428 215H1141V0H233Z" />
<glyph unicode="3" glyph-name="three" horiz-adv-x="1268" d="M106 1434H825Q855 1434 889 1432T960 1420T1031 1388T1098 1327Q1145 1265 1155 1190Q1160 1152 1162 1119T1165 1057Q1165 1025 1163 992T1155 925Q1144 857 1098 805Q1087 793 1073 781T1041 759T1000
741T950 731V725Q999 723 1039 705T1106 662Q1134 633 1150 599T1174 530T1184 460T1186 395Q1186 303 1170 226Q1155 147 1092 84Q1037 29 973 14Q909 0 848 0H82V215H657Q726 215 770 218T844 240Q889 268 898 315Q907 361 907 410Q907 435 905 458T899 504Q891
549 848 582Q814 607 774 611Q754 613 739 614T713 616H119V831H696Q729 831 773 837Q816 844 848 879Q861 893 869 911T881 949T886 989T887 1028Q887 1067 881 1107T848 1176Q819 1204 785 1211T719 1219H106V1434Z" />
<glyph unicode="4" glyph-name="four" horiz-adv-x="1419" d="M905 242H217Q202 242 187 242T155 247T123 259T90 285Q72 305 57 342T41 440Q41 483 54 525Q67 567 121 627L813 1368Q863 1422 920 1436Q979 1450 1012 1450Q1042 1450 1077 1442T1141 1405Q1155
1390 1162 1376T1172 1349T1175 1321T1176 1294V457H1358V242H1176V0H905V242ZM905 1137Q905 1145 897 1145Q893 1145 889 1142T872 1124L324 516Q315 508 307 499T299 481Q299 475 305 466T336 457H905V1137Z" />
<glyph unicode="5" glyph-name="five" horiz-adv-x="1266" d="M90 215H729Q759 215 803 224Q846 233 874 276Q891 302 898 347Q902 370 903 392T905 434Q905 448 904 466T900 506Q896 549 874 578Q869 586 860 595T836 612T800 625T750 631H369Q348 632 321 632Q295
632 267 635T212 647T164 672Q133 692 117 721T93 782T84 841T82 887V1249Q82 1303 96 1334T127 1382Q145 1400 165 1410T206 1426T244 1433T272 1434H1137V1219H420Q403 1219 388 1215T365 1200Q354 1190 353 1174T352 1145V967Q352 944 355 918T375 872Q391 856
420 851T471 846H866Q932 846 994 825Q1057 806 1110 737Q1163 669 1173 594Q1178 556 1181 519T1184 444Q1184 395 1181 345T1168 248T1139 158T1085 82Q1055 51 1019 34T947 10T875 1T813 0H90V215Z" />
<glyph unicode="6" glyph-name="six" horiz-adv-x="1309" d="M854 879Q915 879 984 867Q1052 857 1114 801Q1154 765 1176 722T1210 633T1224 545T1227 465Q1227 440 1225 401T1217 318T1198 228T1165 147Q1139 100 1102 72T1021 27T932 6T844 0H485Q412 0 352
19T250 70Q172 127 147 212Q123 297 123 395V1061Q123 1125 135 1174T166 1259T206 1320T248 1362Q307 1409 378 1421Q446 1434 498 1434H1155V1219H594Q580 1219 562 1218T520 1212Q475 1206 440 1171Q407 1138 399 1095Q393 1053 393 1032V879H854ZM393 408Q393
397 393 378T398 337T410 295T432 260Q441 252 452 244T481 230T523 219T580 215H754Q768 215 785 217T824 223Q866 231 901 270Q936 310 942 360Q948 412 948 449Q948 468 947 489T941 531T927 572T899 610Q864 647 818 655Q771 664 731 664H393V408Z" />
<glyph unicode="7" glyph-name="seven" horiz-adv-x="1102" d="M805 1139Q819 1161 823 1171T827 1192Q827 1212 812 1215T784 1219H-20V1434H965Q1016 1434 1047 1421T1094 1387T1116 1338T1122 1284Q1122 1233 1110 1195T1073 1118L367 0H66L805 1139Z" />
<glyph unicode="8" glyph-name="eight" horiz-adv-x="1296" d="M311 731Q245 738 193 795Q136 852 125 917Q120 949 118 979T115 1038Q115 1065 117 1106T128 1191T156 1278T211 1352Q244 1382 289 1398T380 1423T469 1432T541 1434H754Q795 1434 840 1432T929
1421T1013 1397T1083 1352Q1119 1319 1139 1277T1168 1192T1180 1108T1182 1038Q1182 1009 1179 979T1171 917Q1160 853 1104 795Q1052 738 985 731V727Q1027 721 1065 705T1128 666Q1159 637 1176 601T1202 527T1212 450T1214 379Q1214 343 1212 310T1206 245Q1199
185 1151 125Q1116 78 1075 53T988 16T895 2T803 0H494Q449 0 402 2T309 16T221 53T145 125Q124 155 112 185T93 247T84 312T82 379Q82 412 84 450T94 526T119 601T168 666Q197 692 236 707T311 727V731ZM735 834Q768 834 807 840Q845 846 874 887Q903 928 903
1024Q903 1040 901 1059T895 1104Q888 1151 852 1184Q823 1210 786 1214T713 1219H582Q547 1219 511 1215T444 1184Q407 1151 399 1104Q393 1057 393 1024Q393 926 420 887Q449 846 490 840Q532 834 561 834H735ZM756 215Q815 215 849 232T899 268Q924 296 930
345Q936 393 936 422Q936 450 927 500Q918 549 877 584Q845 609 807 613Q787 615 773 616T748 618H549Q538 618 524 617T489 613Q452 609 420 584Q379 549 369 500Q360 450 360 422Q360 393 366 345Q374 296 397 268Q414 250 447 233T541 215H756Z" />
<glyph unicode="9" glyph-name="nine" horiz-adv-x="1264" d="M147 215H702Q737 215 782 221Q827 227 862 262Q896 296 904 349Q908 375 909 397T911 436V557H416Q397 557 368 560T304 574T233 606T166 664Q106 733 94 819Q82 904 82 995Q82 1032 84 1078T98 1172T130
1265T190 1348Q255 1406 333 1419Q412 1434 479 1434H768Q810 1434 857 1431T952 1413T1042 1370T1118 1294Q1160 1234 1170 1168Q1182 1102 1182 1049V471Q1182 393 1174 318T1133 176Q1100 111 1055 75T963 23T871 3T793 0H147V215ZM911 1028Q911 1053 905 1095Q899
1138 866 1169Q848 1188 815 1203T727 1219H561Q506 1219 472 1205T418 1169Q395 1149 378 1107T360 989Q360 965 363 941T372 893T389 850T414 815Q430 801 452 793T498 780T543 774T580 772H911V1028Z" />
<glyph unicode=":" glyph-name="colon" horiz-adv-x="496" d="M123 827V1085H373V827H123ZM123 0V258H373V0H123Z" />
<glyph unicode=";" glyph-name="semicolon" horiz-adv-x="580" d="M207 827V1085H457V827H207ZM0 -129L250 287L446 170L182 -238L0 -129Z" />
<glyph unicode="&lt;" glyph-name="less" horiz-adv-x="1190" d="M1067 1303V1114L459 827L1067 541V352L123 827L1067 1303Z" />
<glyph unicode="=" glyph-name="equal" horiz-adv-x="1188" d="M123 403V578H1065V403H123ZM123 713V887H1065V713H123Z" />
<glyph unicode="&gt;" glyph-name="greater" horiz-adv-x="1190" d="M123 352V541L731 827L123 1114V1303L1067 827L123 352Z" />
<glyph unicode="?" glyph-name="question" horiz-adv-x="991" d="M236 254H485V0H236V254ZM236 399V518Q236 560 244 594T276 664Q299 692 329 717T391 762L524 842Q550 855 571 870T608 908T631 961T639 1038Q639 1075 633 1112T596 1180Q578 1196 561 1204T527
1215T492 1219Q475 1219 457 1219H41V1434H580Q602 1434 634 1432T702 1422T773 1395T838 1343Q885 1287 897 1214Q909 1140 909 1081Q909 1035 905 990T882 903T829 820T733 743L575 647Q557 637 537 619T506 588Q492 569 489 550T485 512V399H236Z" />
<glyph unicode="@" glyph-name="at" horiz-adv-x="2081" d="M793 -397Q750 -397 684 -392T545 -363T397 -294T262 -166Q218 -105 191 -28T148 142T128 343T123 573Q123 676 126 765T143 932T185 1080T262 1212Q324 1290 397 1335T548 1403T707 1432T866 1438H1264Q1317
1438 1395 1432Q1471 1428 1555 1400Q1597 1387 1638 1368T1718 1320T1792 1254T1858 1167Q1894 1106 1914 1041T1944 907T1956 768T1958 625Q1958 553 1956 489T1948 367T1928 259T1894 164Q1855 83 1790 39T1618 -6Q1573 -6 1529 5T1447 39T1381 98T1339 184Q1304
120 1256 82T1157 25T1057 0T969 -6Q933 -6 885 -1T788 23T691 76T608 170Q578 223 561 307T543 522Q543 664 561 741Q571 780 581 810T602 864Q647 949 739 1008Q831 1067 973 1067H1270Q1307 1067 1344 1061T1415 1022Q1431 1004 1439 987T1451 953T1454 918Q1454
901 1454 885V375Q1454 306 1471 265T1513 201T1565 173T1614 166Q1700 166 1739 264Q1747 285 1753 312T1763 381T1770 487T1772 645Q1772 748 1765 822T1747 949T1723 1034T1696 1090Q1657 1153 1604 1188T1492 1241T1377 1262T1272 1266H860Q795 1266 721 1259T578
1226T450 1151T356 1018Q347 996 338 963T322 875T311 736T307 532Q307 496 308 437T315 312T330 178T356 59Q375 6 406 -45T490 -136T624 -200T825 -225H1446V-397H793ZM1255 805Q1255 838 1237 856Q1225 868 1206 873T1169 879H1016Q999 879 977 877T929 867T877
845T825 807Q772 751 760 676Q748 599 748 526Q748 460 753 398T784 287Q800 256 820 236T865 205T916 189T973 184Q1012 184 1044 192T1102 213T1148 242T1184 276Q1231 332 1243 397Q1255 463 1255 512V805Z" />
<glyph unicode="A" glyph-name="A" horiz-adv-x="1287" d="M36 300L488 1579H798L1251 300H967L881 560H396L311 300H36ZM639 1294L470 780H810L639 1294Z" />
<glyph unicode="B" glyph-name="B" horiz-adv-x="1287" d="M136 300V1579H755Q940 1579 1044 1493Q1149 1407 1149 1255Q1149 1095 1032 1013Q1022 1006 1012 1000T989 988Q1035 971 1069 946Q1192 862 1192 700Q1192 503 1072 402T716 300H136ZM391 863V522H716Q925
522 925 704Q925 863 711 863H391ZM391 1359V1078H697Q896 1078 896 1228Q896 1359 686 1359H391Z" />
<glyph unicode="C" glyph-name="C" horiz-adv-x="1287" d="M1219 748Q1195 525 1045 395Q897 265 666 265Q396 265 237 445Q78 625 78 932Q78 1245 237 1430Q396 1614 666 1614Q894 1614 1043 1490Q1194 1367 1219 1157H951Q938 1260 862 1321Q786 1382 668 1382Q519
1382 435 1263Q351 1144 351 934Q351 728 435 613Q519 497 668 497Q786 497 862 564Q937 630 951 748H1219Z" />
<glyph unicode="D" glyph-name="D" horiz-adv-x="1287" d="M136 300V1579H683Q947 1579 1084 1424T1221 971Q1221 642 1079 471T661 300H136ZM403 520H628Q954 520 954 960Q954 1359 650 1359H403V520Z" />
<glyph unicode="E" glyph-name="E" horiz-adv-x="1188" d="M136 300V1579H1077V1352H403V1080H1028V860H403V527H1107V300H136Z" />
<glyph unicode="F" glyph-name="F" horiz-adv-x="1088" d="M136 300V1579H1046V1352H403V1061H963V841H403V300H136Z" />
<glyph unicode="G" glyph-name="G" horiz-adv-x="1386" d="M686 265Q405 265 242 445Q78 626 78 932Q78 1245 248 1430Q419 1614 710 1614Q942 1614 1094 1497Q1244 1382 1270 1182H1002Q991 1266 908 1329Q825 1392 724 1392Q550 1392 451 1271Q353 1150 353
937Q353 718 447 605Q542 492 723 492Q878 492 965 611Q1012 678 1035 768V771H734V991H1270V301H1092L1066 466L1050 445Q915 265 686 265Z" />
<glyph unicode="H" glyph-name="H" horiz-adv-x="1287" d="M126 300V1579H393V1100H893V1579H1161V300H893V879H393V300H126Z" />
<glyph unicode="I" glyph-name="I" horiz-adv-x="495" d="M114 300V1579H381V300H114Z" />
<glyph unicode="J" glyph-name="J" horiz-adv-x="991" d="M596 1579H863V659Q863 463 759 364T451 265Q234 265 133 374T39 713V790H293V713Q290 596 327 540T448 484Q527 484 561 525T596 659V1579Z" />
<glyph unicode="K" glyph-name="K" horiz-adv-x="1287" d="M155 300V1579H422V1049L912 1579H1253L742 1056L1287 300H937L552 863L422 730V300H155Z" />
<glyph unicode="L" glyph-name="L" horiz-adv-x="1088" d="M136 300V1579H403V527H1039V300H136Z" />
<glyph unicode="M" glyph-name="M" horiz-adv-x="1484" d="M372 300H123V1579H514L747 565L977 1579H1363V300H1114V1375L874 300H612L372 1399V300Z" />
<glyph unicode="N" glyph-name="N" horiz-adv-x="1287" d="M372 300H123V1579H403L916 682V1579H1166V300H900L372 1221V300Z" />
<glyph unicode="O" glyph-name="O" horiz-adv-x="1386" d="M693 265Q410 265 244 445Q78 624 78 932Q78 1246 244 1430Q410 1614 693 1614Q976 1614 1142 1430Q1308 1246 1308 932Q1308 624 1142 445Q975 265 693 265ZM693 492Q856 492 948 609Q1041 726 1041
934Q1041 1147 948 1267Q856 1387 693 1387Q530 1387 437 1267Q345 1146 345 934Q345 727 437 609Q528 492 693 492Z" />
<glyph unicode="P" glyph-name="P" horiz-adv-x="1188" d="M136 300V1579H671Q891 1579 1004 1477T1117 1179Q1117 971 1004 864T671 757Q593 758 527 758T403 755V300H136ZM403 977H626Q850 977 850 1176Q850 1359 626 1359H403V977Z" />
<glyph unicode="Q" glyph-name="Q" horiz-adv-x="1386" d="M1176 207L1023 349Q886 265 693 265Q410 265 244 445Q78 624 78 932Q78 1246 244 1430Q410 1614 693 1614Q976 1614 1142 1430Q1308 1246 1308 932Q1308 654 1173 482L1312 351L1176 207ZM705 642L840
785L980 658Q1041 764 1041 934Q1041 1147 948 1267Q856 1387 693 1387Q530 1387 437 1267Q345 1146 345 934Q345 727 437 609Q528 492 693 492Q772 491 836 521L705 642Z" />
<glyph unicode="R" glyph-name="R" horiz-adv-x="1287" d="M136 300V1579H780Q962 1579 1075 1481Q1187 1384 1187 1223Q1187 1039 1062 953Q1045 942 1027 933T987 915Q1010 906 1030 894Q1139 829 1144 675L1150 465Q1151 434 1154 412T1163 376Q1174 350 1207
335V301H912Q907 311 902 332T893 386Q889 419 888 454T885 528L883 646Q882 689 870 719T832 769T766 796T669 805H403V300H136ZM403 1020H713Q920 1020 920 1190Q920 1359 723 1359H403V1020Z" />
<glyph unicode="S" glyph-name="S" horiz-adv-x="1188" d="M829 1195Q826 1241 805 1278T749 1340T666 1380T559 1394Q456 1394 399 1350T342 1224Q342 1166 402 1135Q431 1119 493 1101T653 1061Q932 1000 1027 917Q1121 836 1121 657Q1121 477 979 371Q837 265
595 265Q473 265 378 293T216 377T112 513T70 697H327Q331 594 400 540T595 485Q724 485 795 526T867 641Q867 713 815 747Q790 764 737 781T599 818Q296 885 192 965Q90 1043 90 1209Q90 1394 225 1504Q361 1614 590 1614Q805 1614 939 1500Q1074 1388 1089 1195H829Z"
/>
<glyph unicode="T" glyph-name="T" horiz-adv-x="1088" d="M412 300V1352H25V1579H1065V1352H679V300H412Z" />
<glyph unicode="U" glyph-name="U" horiz-adv-x="1287" d="M1161 782Q1161 507 1040 386Q919 265 645 265Q382 265 256 391T128 782V1579H395V773Q395 498 645 498Q779 498 836 561Q893 625 893 773V1579H1161V782Z" />
<glyph unicode="V" glyph-name="V" horiz-adv-x="1188" d="M34 1579H318L599 602L879 1579H1154L721 300H467L34 1579Z" />
<glyph unicode="W" glyph-name="W" horiz-adv-x="1682" d="M385 300L29 1579H307L520 643L703 1579H987L1173 651L1385 1579H1655L1299 300H1045L840 1307L639 300H385Z" />
<glyph unicode="X" glyph-name="X" horiz-adv-x="1188" d="M25 300L439 947L53 1579H369L594 1166L827 1579H1135L746 967L1163 300H844L593 740L341 300H25Z" />
<glyph unicode="Y" glyph-name="Y" horiz-adv-x="1188" d="M473 781L27 1579H345L611 1024L860 1579H1163L740 786V300H473V781Z" />
<glyph unicode="Z" glyph-name="Z" horiz-adv-x="1088" d="M44 524L707 1352H66V1579H1044V1368L369 527H1042V300H44V524Z" />
<glyph unicode="[" glyph-name="bracketleft" horiz-adv-x="593" d="M112 -52V1588H551V1416H335V119H551V-52H112Z" />
<glyph unicode="\" glyph-name="backslash" horiz-adv-x="495" d="M345 265L-58 1614H151L553 265H345Z" />
<glyph unicode="]" glyph-name="bracketright" horiz-adv-x="593" d="M481 -52H43V119H258V1416H43V1588H481V-52Z" />
<glyph unicode="^" glyph-name="asciicircum" horiz-adv-x="1041" d="M611 1541L930 878H732L520 1342L309 878H110L430 1541H611Z" />
<glyph unicode="_" glyph-name="underscore" horiz-adv-x="991" d="M0 77V169H991V77H0Z" />
<glyph unicode="`" glyph-name="grave" horiz-adv-x="593" d="M221 1377L-40 1635H233L401 1377H221Z" />
<glyph unicode="a" glyph-name="a" horiz-adv-x="991" d="M343 276Q210 276 131 351Q51 426 51 549Q51 679 123 756T334 854L499 877Q531 882 557 889T606 906Q624 915 634 937T641 984Q637 1023 600 1046Q558 1073 478 1073Q406 1073 366 1039T324 940H84Q101
1272 506 1272Q683 1272 785 1197Q887 1123 887 994V465Q887 400 897 376Q908 350 940 336V301H670Q662 330 656 357T648 413L647 415Q530 276 343 276ZM643 650V758Q600 734 528 719L436 702Q303 678 303 575Q303 518 333 486T418 454Q539 454 610 538Q624 555
633 587Q643 617 643 650Z" />
<glyph unicode="b" glyph-name="b" horiz-adv-x="1088" d="M109 1579H358V1123L364 1130Q464 1272 630 1272Q810 1272 919 1139Q1029 1005 1029 788Q1029 559 919 417Q809 276 630 276Q464 276 364 408L353 422V300H109V1579ZM559 481Q659 481 716 555T773 765Q773
834 759 888T716 979T649 1036T559 1056Q459 1056 403 977T346 757Q346 627 403 554Q458 481 559 481Z" />
<glyph unicode="c" glyph-name="c" horiz-adv-x="991" d="M934 651Q914 474 802 375Q689 276 510 276Q295 276 178 403Q61 530 61 768Q61 999 182 1135Q304 1272 510 1272Q693 1272 809 1171Q926 1070 934 906H679Q677 941 665 970T630 1019T577 1051T510 1063Q416
1063 367 988T318 768Q318 626 367 553T510 480Q578 480 625 527Q671 573 679 651H934Z" />
<glyph unicode="d" glyph-name="d" horiz-adv-x="1088" d="M464 276Q283 276 172 417Q61 558 61 788Q61 1005 171 1139Q282 1272 462 1272Q624 1272 721 1136L732 1122V1579H981V300H739V421L735 415Q632 276 464 276ZM531 1056Q431 1056 375 980T318 765Q318
630 374 556T530 481Q632 481 688 559T744 780Q744 910 688 983T531 1056Z" />
<glyph unicode="e" glyph-name="e" horiz-adv-x="991" d="M491 276Q383 276 299 310T158 409T71 569T41 788Q41 1015 160 1143Q278 1272 491 1272Q707 1272 824 1141Q941 1010 941 768Q943 738 937 712H292Q301 600 342 544Q394 474 516 474Q571 474 620 506Q668
537 679 584H933Q900 440 783 357Q666 276 491 276ZM681 871Q674 956 636 1004Q588 1067 487 1067Q391 1067 340 993Q309 947 295 871H681Z" />
<glyph unicode="f" glyph-name="f" horiz-adv-x="593" d="M405 1072V300H156V1072H17V1247H156V1326Q156 1596 449 1596Q515 1597 566 1590V1391H487Q438 1391 421 1371Q405 1352 405 1289V1247H566V1072H405Z" />
<glyph unicode="g" glyph-name="g" horiz-adv-x="1088" d="M543 103Q648 103 694 154T740 323V439L720 409Q637 295 483 295Q298 295 184 427Q71 561 71 778Q71 999 181 1136Q292 1272 472 1272Q632 1272 719 1156Q727 1145 735 1133T750 1108V1247H985V350Q985
126 874 20T528 -87Q335 -87 221 -12Q106 63 99 196H371Q374 148 415 126T543 103ZM535 1056Q438 1056 383 982T328 775Q328 644 382 572T534 500Q583 500 622 519T688 574T729 661T743 778Q743 910 688 983T535 1056Z" />
<glyph unicode="h" glyph-name="h" horiz-adv-x="1088" d="M116 300V1579H365V1126L385 1154Q478 1272 653 1272Q802 1272 888 1183Q973 1095 973 937V300H723V892Q723 1064 569 1064Q470 1064 418 1005T365 834V300H116Z" />
<glyph unicode="i" glyph-name="i" horiz-adv-x="495" d="M125 300V1247H375V300H125ZM123 1588H377V1357H123V1588Z" />
<glyph unicode="j" glyph-name="j" horiz-adv-x="495" d="M121 1247H371V196Q371 42 304 -19Q237 -81 73 -81L5 -80V119L36 118Q61 118 77 121T103 134T117 158T121 196V1247ZM119 1588H373V1357H119V1588Z" />
<glyph unicode="k" glyph-name="k" horiz-adv-x="991" d="M123 300V1579H372V888L684 1247H992L650 888L1000 300H704L476 707L372 598V300H123Z" />
<glyph unicode="l" glyph-name="l" horiz-adv-x="495" d="M123 300V1579H372V300H123Z" />
<glyph unicode="m" glyph-name="m" horiz-adv-x="1584" d="M114 300V1247H351V1094Q367 1134 393 1166Q475 1272 633 1272Q760 1272 839 1187Q869 1157 888 1116L919 1166Q995 1272 1144 1272Q1298 1272 1385 1180Q1472 1088 1472 927V300H1222V856Q1222 962 1188
1013T1080 1064Q1001 1064 960 1016T919 877V300H669V897Q669 1064 520 1064Q445 1064 405 1016T364 877V300H114Z" />
<glyph unicode="n" glyph-name="n" horiz-adv-x="1088" d="M116 300V1247H353V1106Q361 1119 369 1131T385 1154Q478 1272 653 1272Q802 1272 888 1183Q973 1095 973 937V300H723V892Q723 1064 569 1064Q470 1064 418 1005T365 834V300H116Z" />
<glyph unicode="o" glyph-name="o" horiz-adv-x="1088" d="M545 276Q322 276 192 409Q61 543 61 768Q61 998 192 1135Q323 1272 545 1272Q767 1272 898 1135Q1029 998 1029 768Q1029 543 898 409Q768 276 545 276ZM545 484Q657 484 715 557T773 771Q773 915 715
989T545 1063Q433 1063 376 989T318 771Q318 630 375 557T545 484Z" />
<glyph unicode="p" glyph-name="p" horiz-adv-x="1088" d="M110 1247H348V1106L365 1130Q465 1272 631 1272Q811 1272 920 1139Q1029 1006 1029 788Q1029 557 920 417Q810 276 631 276Q465 276 365 408L360 415V-71H110V1247ZM559 481Q659 481 716 555T773 765Q773
903 717 979T560 1056Q460 1056 404 977T348 757Q348 626 403 554T559 481Z" />
<glyph unicode="q" glyph-name="q" horiz-adv-x="1088" d="M465 276Q284 276 172 408Q61 541 61 758Q61 991 176 1131Q291 1272 478 1272Q632 1272 726 1136Q742 1113 753 1091V1247H983V-71H733V411Q632 274 465 276ZM532 1056Q430 1056 374 980T318 765Q318
630 374 556T531 481Q633 481 689 559T746 780Q746 910 689 983T532 1056Z" />
<glyph unicode="r" glyph-name="r" horiz-adv-x="693" d="M114 300V1247H351V1077Q364 1105 381 1131Q469 1272 608 1272L665 1271V1016Q632 1019 590 1019Q364 1019 364 792V300H114Z" />
<glyph unicode="s" glyph-name="s" horiz-adv-x="991" d="M652 963Q652 1018 607 1051T486 1084Q414 1084 374 1060T333 990Q333 958 379 936Q426 913 540 888Q772 837 847 776Q925 714 925 584Q925 446 812 360Q699 276 515 276Q295 276 178 359T53 603H307Q310
537 364 501T515 464Q590 464 632 489T674 561Q674 593 633 616Q613 627 577 638T490 660Q250 714 169 774Q88 832 88 958Q88 1099 193 1185Q298 1272 469 1272Q662 1272 780 1187Q899 1101 899 963H652Z" />
<glyph unicode="t" glyph-name="t" horiz-adv-x="593" d="M551 295Q519 293 481 292T397 290Q331 290 284 301T207 337T163 399T149 492V1072H17V1247H149V1501H398V1247H551V1072H398V534Q398 517 402 507T418 490T449 482T499 480H551V295Z" />
<glyph unicode="u" glyph-name="u" horiz-adv-x="1088" d="M367 1247V654Q367 566 404 525T519 484Q618 484 669 542T721 713V1247H971V300H733V442Q726 429 719 417T702 393Q610 276 435 276Q360 276 301 298T201 364T139 469T117 609V1247H367Z" />
<glyph unicode="v" glyph-name="v" horiz-adv-x="991" d="M23 1247H299L501 541L705 1247H967L626 300H365L23 1247Z" />
<glyph unicode="w" glyph-name="w" horiz-adv-x="1386" d="M292 300L17 1247H282L433 551L575 1247H825L965 550L1119 1247H1370L1096 300H841L696 1005L547 300H292Z" />
<glyph unicode="x" glyph-name="x" horiz-adv-x="991" d="M27 300L349 784L40 1247H341L500 967L659 1247H951L643 779L964 300H657L492 589L328 300H27Z" />
<glyph unicode="y" glyph-name="y" horiz-adv-x="991" d="M960 1247L621 280Q538 40 481 -20Q423 -81 273 -81L154 -78V122Q162 118 202 118Q302 118 332 159Q351 184 371 267L17 1247H293L499 544L699 1247H960Z" />
<glyph unicode="z" glyph-name="z" horiz-adv-x="891" d="M36 494L515 1042L521 1049H71V1247H833V1042L360 504H855V300H36V494Z" />
<glyph unicode="{" glyph-name="braceleft" horiz-adv-x="693" d="M651 -51Q444 -65 348 3T252 233V464Q252 604 226 639Q200 674 85 689V847Q200 862 226 897Q252 932 252 1072V1303Q252 1464 348 1532T651 1588V1428Q529 1434 501 1406Q473 1378 473 1251V1019Q473
880 390 818Q351 789 284 767Q352 747 390 718Q473 656 473 517V285Q473 158 501 130Q529 101 651 109V-51Z" />
<glyph unicode="|" glyph-name="bar" horiz-adv-x="499" d="M150 -145V1636H349V-145H150Z" />
<glyph unicode="}" glyph-name="braceright" horiz-adv-x="693" d="M43 -51V109Q164 102 192 130Q220 158 220 285V517Q220 656 304 718Q341 747 409 767Q341 789 304 818Q220 879 220 1019V1251Q220 1378 192 1406Q164 1434 43 1428V1588Q250 1601 345 1533T441
1303V1072Q441 932 467 897Q493 862 608 847V689Q493 674 467 639Q441 604 441 464V233Q441 72 345 3Q250 -65 43 -51Z" />
<glyph unicode="~" glyph-name="asciitilde" horiz-adv-x="1041" d="M109 748Q124 784 147 812T199 861T261 893T331 904Q353 904 376 901T427 889T486 867T558 836Q612 811 653 796T712 780Q754 780 790 811T867 912L932 753Q912 717 887 689T833 640T773 609T710
598Q686 598 662 602T611 615T553 640T483 678Q447 698 404 709T323 721Q282 721 238 683Q195 646 174 590L109 748Z" />
<glyph unicode="" glyph-name="delete" horiz-adv-x="1392" d="M498 670Q498 560 449 493Q408 437 342 421Q306 412 259 412H76V922H251Q313 922 342 915Q439 893 478 792Q498 737 498 670ZM428 671Q428 817 338 852Q312 862 251 862H143V472H252Q341 472 377
508Q428 559 428 671ZM940 412H559V922H927V862H626V706H908V646H626V472H940V412ZM1322 412H1004V922H1072V472H1322V412Z" />
</font>
</defs>
</svg>
